<svg xmlns="http://www.w3.org/2000/svg" width="59" height="60" fill="none"><path fill="url(#a)" d="M15.196 53.478C6.804 53.478 0 46.675 0 38.282V11.019a5.02 5.02 0 1 1 10.038 0v24.006c0 5.62 4.557 10.177 10.177 10.177h6.04a4.138 4.138 0 0 1 0 8.276h-11.06z"/><path fill="url(#b)" d="M27.437 6c8.393 0 15.196 6.804 15.196 15.197v27.262a5.019 5.019 0 0 1-10.038 0V24.454c0-5.62-4.556-10.177-10.177-10.177h-6.04a4.138 4.138 0 0 1 0-8.276h11.059z"/><path fill="url(#c)" d="M53.981 6A5.019 5.019 0 0 1 59 11.02v37.44a5.02 5.02 0 1 1-10.038 0V11.02A5.02 5.02 0 0 1 53.98 6z"/><circle cx="21.081" cy="29.801" r="4.76" fill="#12F287"/><defs><linearGradient id="a" x1="15.196" x2="15.196" y1="53.478" y2="6" gradientUnits="userSpaceOnUse"><stop stop-color="#12F287"/><stop offset="1" stop-color="#8BF9C4"/></linearGradient><linearGradient id="b" x1="27.437" x2="27.437" y1="6" y2="53.478" gradientUnits="userSpaceOnUse"><stop stop-color="#12F287"/><stop offset="1" stop-color="#8BF9C4"/></linearGradient><linearGradient id="c" x1="53.981" x2="53.981" y1="53.478" y2="6" gradientUnits="userSpaceOnUse"><stop stop-color="#12F287"/><stop offset="1" stop-color="#8BF9C4"/></linearGradient></defs></svg>
