<svg width="144" height="31" viewBox="0 0 144 31" fill="none" xmlns="http://www.w3.org/2000/svg">
<path d="M7.15781 24.045C3.20466 24.045 0 20.8403 0 16.8872V4.04574C0 2.74009 1.05844 1.68164 2.3641 1.68164C3.66975 1.68164 4.72819 2.74008 4.72819 4.04574V15.353C4.72819 18.0005 6.87441 20.1467 9.5219 20.1467H12.3665C13.443 20.1467 14.3156 21.0194 14.3156 22.0959C14.3156 23.1723 13.4429 24.045 12.3665 24.045H7.15781Z" fill="url(#paint0_linear_158_1270)"/>
<path d="M12.9242 1.68204C16.8774 1.68204 20.082 4.8867 20.082 8.83985V21.6813C20.082 22.987 19.0236 24.0454 17.7179 24.0454C16.4123 24.0454 15.3538 22.987 15.3538 21.6813V10.3741C15.3538 7.72656 13.2076 5.58035 10.5601 5.58035H7.71557C6.63908 5.58035 5.76642 4.70768 5.76642 3.6312C5.76642 2.55471 6.63908 1.68204 7.71557 1.68204H12.9242Z" fill="url(#paint1_linear_158_1270)"/>
<path d="M25.4266 1.68164C26.7323 1.68164 27.7907 2.74008 27.7907 4.04574V21.6809C27.7907 22.9866 26.7323 24.045 25.4266 24.045C24.1209 24.045 23.0625 22.9866 23.0625 21.6809V4.04574C23.0625 2.74009 24.1209 1.68164 25.4266 1.68164Z" fill="url(#paint2_linear_158_1270)"/>
<circle cx="9.92966" cy="12.8926" r="2.24216" fill="#12F287"/>
<path d="M139.916 4.4543V0.700684H144V4.4543H139.916ZM139.916 23.4626V6.39117H144V23.4626H139.916Z" fill="#0E0C0F"/>
<path d="M138.054 6.39135V23.4628H134.301V21.3458C133.53 22.1866 132.664 22.8422 131.703 23.3127C130.752 23.7831 129.636 24.0183 128.355 24.0183C126.824 24.0183 125.442 23.653 124.211 22.9223C122.98 22.1816 121.974 21.1105 121.193 19.7092C120.422 18.3078 120.037 16.7113 120.037 14.9196C120.037 13.1879 120.412 11.6214 121.163 10.22C121.924 8.81869 122.97 7.73765 124.301 6.97691C125.643 6.20617 127.039 5.8208 128.49 5.8208C129.481 5.8208 130.362 5.97595 131.133 6.28625C131.904 6.59655 132.559 6.97191 133.1 7.41233C133.65 7.84275 134.031 8.22312 134.241 8.55343H134.301V6.39135H138.054ZM134.181 14.8895C134.181 13.298 133.7 12.0118 132.739 11.0308C131.788 10.0499 130.597 9.5594 129.166 9.5594C128.245 9.5594 127.394 9.79463 126.613 10.2651C125.843 10.7255 125.232 11.3962 124.782 12.277C124.341 13.1479 124.121 14.0587 124.121 15.0097C124.121 16.5011 124.612 17.7523 125.592 18.7633C126.583 19.7642 127.785 20.2647 129.196 20.2647C130.687 20.2647 131.889 19.7442 132.799 18.7032C133.72 17.6622 134.181 16.391 134.181 14.8895Z" fill="#0E0C0F"/>
<path d="M114.074 23.4628V19.3789H118.158V23.4628H114.074Z" fill="#0E0C0F"/>
<path d="M104.778 24.0183C103.577 24.0183 102.421 23.7881 101.31 23.3277C100.199 22.8672 99.2431 22.2366 98.4423 21.4358C97.6416 20.6251 97.016 19.7492 96.5655 18.8083C95.975 17.5871 95.6797 16.2909 95.6797 14.9196C95.6797 13.338 96.0801 11.8316 96.8808 10.4002C97.6916 8.95882 98.8177 7.83774 100.259 7.03697C101.7 6.22619 103.207 5.8208 104.778 5.8208C106.36 5.8208 107.866 6.22119 109.298 7.02196C110.729 7.82273 111.84 8.9338 112.631 10.3552C113.422 11.7665 113.817 13.298 113.817 14.9496C113.817 16.1207 113.622 17.2218 113.232 18.2528C112.851 19.2738 112.326 20.1646 111.655 20.9254C110.994 21.6861 110.304 22.2767 109.583 22.6971C108.872 23.1175 108.102 23.4428 107.271 23.673C106.44 23.9032 105.609 24.0183 104.778 24.0183ZM104.778 20.2647C106.21 20.2647 107.391 19.7392 108.322 18.6882C109.263 17.6372 109.733 16.396 109.733 14.9646C109.733 14.0037 109.503 13.0978 109.043 12.247C108.582 11.3862 107.957 10.7255 107.166 10.2651C106.385 9.79463 105.594 9.5594 104.793 9.5594C104.003 9.5594 103.197 9.78962 102.376 10.2501C101.565 10.7105 100.925 11.3561 100.454 12.1869C99.9938 13.0177 99.7636 13.9386 99.7636 14.9496C99.7636 15.9406 99.9938 16.8514 100.454 17.6822C100.915 18.513 101.535 19.1536 102.316 19.6041C103.107 20.0445 103.928 20.2647 104.778 20.2647Z" fill="#0E0C0F"/>
<path d="M82.752 23.4626V0.700684H86.8359V14.4239H86.8959L92.3462 6.39117H97.0457L90.9048 14.7542L97.8565 23.4626H92.6915L86.8959 15.4749H86.8359V23.4626H82.752Z" fill="#0E0C0F"/>
<path d="M76.4146 6.39135H80.3784V20.3248C80.3784 23.708 79.3625 26.3206 77.3305 28.1623C75.6589 29.6638 73.6319 30.4145 71.2496 30.4145C69.6982 30.4145 68.3068 30.1342 67.0756 29.5737C65.8544 29.0232 64.8535 28.3075 64.0727 27.4266C63.4822 26.746 62.9517 25.8551 62.4812 24.754H67.1657C67.7363 25.3947 68.2968 25.8501 68.8473 26.1204C69.568 26.4807 70.3738 26.6609 71.2647 26.6609C72.1055 26.6609 72.8662 26.4957 73.5469 26.1654C74.2375 25.8451 74.7931 25.4447 75.2135 24.9642C75.6439 24.4838 75.9642 23.9633 76.1744 23.4027C76.3946 22.8422 76.5347 22.1565 76.5948 21.3458L76.5347 21.2857C75.2035 23.1075 73.3717 24.0183 71.0394 24.0183C69.548 24.0183 68.0966 23.6179 66.6852 22.8172C65.2839 22.0064 64.1878 20.8803 63.3971 19.4389C62.6063 17.9975 62.2109 16.456 62.2109 14.8145C62.2109 13.4231 62.4562 12.1919 62.9466 11.1209C63.4471 10.0499 64.0577 9.15902 64.7784 8.44833C65.4991 7.72764 66.2899 7.15208 67.1507 6.72167C68.3619 6.12109 69.6281 5.8208 70.9494 5.8208C72.0504 5.8208 73.0714 6.04101 74.0123 6.48144C74.9532 6.92186 75.734 7.59251 76.3546 8.49338H76.4146V6.39135ZM76.2945 14.7544C76.2945 14.0838 76.1394 13.3831 75.8291 12.6524C75.5988 12.1119 75.2685 11.6114 74.8381 11.1509C74.4177 10.6905 73.9022 10.3101 73.2916 10.0098C72.691 9.70955 71.9904 9.5594 71.1896 9.5594C69.8383 9.5594 68.6822 10.0599 67.7212 11.0608C66.7703 12.0518 66.2949 13.308 66.2949 14.8295C66.2949 15.8405 66.5251 16.7714 66.9855 17.6222C67.446 18.463 68.0816 19.1136 68.8924 19.5741C69.7032 20.0345 70.534 20.2647 71.3848 20.2647C72.1055 20.2647 72.7561 20.1196 73.3367 19.8293C73.9272 19.539 74.4377 19.1587 74.8681 18.6882C75.3086 18.2177 75.6539 17.6472 75.9041 16.9766C76.1644 16.2959 76.2945 15.5552 76.2945 14.7544Z" fill="#0E0C0F"/>
<path d="M61.2492 16.7665H48.0064C48.4168 17.9176 49.0274 18.7884 49.8382 19.379C50.659 19.9696 51.6499 20.2648 52.811 20.2648C53.7219 20.2648 54.4827 20.0847 55.0932 19.7243C55.7038 19.354 56.2193 18.8084 56.6397 18.0877H60.9489C60.6686 18.8685 60.3583 19.5191 60.018 20.0396C59.4875 20.8204 58.8469 21.516 58.0961 22.1266C57.3554 22.7372 56.5446 23.2027 55.6638 23.523C54.793 23.8533 53.767 24.0185 52.5858 24.0185C49.7331 24.0185 47.4459 22.9574 45.7242 20.8354C44.3729 19.1538 43.6973 17.1769 43.6973 14.9047C43.6973 13.2231 44.0926 11.6666 44.8834 10.2352C45.6742 8.79379 46.7702 7.68272 48.1716 6.90196C49.5829 6.1112 51.1194 5.71582 52.781 5.71582C54.3926 5.71582 55.874 6.09619 57.2253 6.85692C58.5766 7.60764 59.6276 8.67367 60.3783 10.055C61.1291 11.4263 61.5044 12.8977 61.5044 14.4693C61.5044 15.23 61.4193 15.9957 61.2492 16.7665ZM57.3154 13.4633C57.0651 12.172 56.5296 11.1861 55.7088 10.5054C54.888 9.81477 53.8721 9.46944 52.6609 9.46944C51.76 9.46944 50.9693 9.66963 50.2886 10.07C49.618 10.4604 49.0574 11.0059 48.607 11.7066C48.3167 12.167 48.0765 12.7526 47.8863 13.4633H57.3154Z" fill="#0E0C0F"/>
<path d="M38.2598 23.4626V0.700684H42.3437V23.4626H38.2598Z" fill="#0E0C0F"/>
<defs>
<linearGradient id="paint0_linear_158_1270" x1="7.15781" y1="24.045" x2="7.15781" y2="1.68164" gradientUnits="userSpaceOnUse">
<stop stop-color="#12F287"/>
<stop offset="1" stop-color="#8BF9C4"/>
</linearGradient>
<linearGradient id="paint1_linear_158_1270" x1="12.9242" y1="1.68204" x2="12.9242" y2="24.0454" gradientUnits="userSpaceOnUse">
<stop stop-color="#12F287"/>
<stop offset="1" stop-color="#8BF9C4"/>
</linearGradient>
<linearGradient id="paint2_linear_158_1270" x1="25.4266" y1="24.045" x2="25.4266" y2="1.68164" gradientUnits="userSpaceOnUse">
<stop stop-color="#12F287"/>
<stop offset="1" stop-color="#8BF9C4"/>
</linearGradient>
</defs>
</svg>
