<svg width="31" height="30" viewBox="0 0 31 30" fill="none" xmlns="http://www.w3.org/2000/svg">
<g clip-path="url(#clip0_158_874)">
<path d="M16.9056 18.6892V16.5249H21.077C21.077 16.7302 21.077 16.9167 21.077 17.1032C21.077 19.4339 21.0649 21.7632 21.085 24.0926C21.0891 24.6172 21.1427 25.1579 21.2756 25.6638C21.6432 27.0646 22.8185 27.7409 24.2394 27.4229C25.7676 27.0807 26.9335 25.6866 26.9872 23.9919C27.0408 22.2745 26.9979 20.5543 26.9952 18.8341C26.9952 18.8046 26.9738 18.7764 26.9402 18.6905H24.8311V16.5249H29.2748C29.2748 18.288 29.2654 20.0337 29.2775 21.7793C29.2895 23.5277 29.3204 25.2747 29.3445 27.07H31.0002V29.1511H27.5869C27.489 28.5379 27.3883 27.9099 27.2756 27.2015C27.171 27.3343 27.0945 27.4189 27.0315 27.5128C25.9514 29.1524 24.3239 29.8354 22.4106 29.4517C20.5363 29.076 19.2912 27.8214 18.9356 25.908C18.8457 25.4223 18.8109 24.9191 18.8055 24.424C18.7907 22.7052 18.8001 20.985 18.8001 19.2662V18.6892H16.9043H16.9056Z" fill="#0E0C0F"/>
<path d="M27.6519 5.46563V3.33219C26.6201 2.67069 25.5119 2.49089 24.3553 2.64788C21.8061 2.99272 20.4 5.36634 20.6146 7.63395C20.7958 9.54331 21.7363 10.9576 23.612 11.5493C25.3415 12.0954 26.875 11.6258 28.1631 10.3538C28.2758 10.2424 28.3818 10.1243 28.5119 9.98744C29.0848 10.4249 29.6416 10.8489 30.2118 11.2836C29.0996 12.7435 27.6908 13.6143 25.9144 13.8598C22.2448 14.3684 18.9456 11.984 18.2908 8.35986C17.5703 4.37207 20.7126 0.586898 24.7686 0.557379C26.757 0.542619 28.5884 1.18265 29.7972 2.32317V5.46563H27.6519Z" fill="#0E0C0F"/>
<path d="M10.7566 10.1901C11.822 7.10126 12.8859 4.01247 13.9606 0.895508H17.6892V3.00211H15.6391C14.292 6.60346 12.9557 10.1713 11.6167 13.7511H9.54107C8.26511 10.1941 6.98781 6.63566 5.69709 3.03968H3.49805V0.900875H7.46546C8.52406 3.9843 9.59071 7.09053 10.656 10.1968C10.6896 10.1941 10.7231 10.1914 10.7553 10.1887L10.7566 10.1901Z" fill="#0E0C0F"/>
<path d="M14.1585 27.1264V29.1592H4.42578V27.1116H6.45577V18.5041H4.42578V16.529H8.35428C8.40392 17.3059 8.45357 18.0653 8.50187 18.8234C9.19553 17.9218 9.97506 17.1905 11.0229 16.7732C12.1258 16.3344 13.273 16.5129 14.4456 16.474V20.3182H12.3351V18.4531C11.7206 18.4437 11.1839 18.5806 10.6955 18.8758C9.49473 19.603 8.81851 20.6912 8.75947 22.0773C8.69373 23.6485 8.74337 25.2251 8.74606 26.799C8.74606 26.8916 8.77289 26.9842 8.79436 27.1277H14.1598L14.1585 27.1264Z" fill="#0E0C0F"/>
<path d="M2.16416 29.2153H0V27.0376H2.16416V29.2153Z" fill="#0E0C0F"/>
</g>
<defs>
<clipPath id="clip0_158_874">
<rect width="31" height="29" fill="white" transform="translate(0 0.557617)"/>
</clipPath>
</defs>
</svg>
