<svg width="66" height="19" viewBox="0 0 66 19" fill="none" xmlns="http://www.w3.org/2000/svg">
<g clip-path="url(#clip0_158_885)">
<path d="M16.4635 0.0576172H0.00390625V16.5497L16.4635 0.0576172Z" fill="#0E0C0F"/>
<path d="M1.47266 18.0575H17.9265V1.56836L1.47266 18.0575Z" fill="#0E0C0F"/>
<path d="M27.4887 0.0807274H21.666V18.0547H25.2616V11.3412H27.5665C31.7671 11.3412 34.1757 9.31905 34.1757 5.79763V5.69941C34.1728 2.12887 31.7354 0.0807274 27.4887 0.0807274ZM30.6579 5.79763C30.6579 7.66378 29.5631 8.64885 27.4887 8.64885H25.2616V2.9464H27.4887C29.6466 2.9464 30.6579 3.81303 30.6579 5.69652V5.79763ZM42.9313 7.14091H39.9983V2.9984H47.8032V0.0807274H36.4287V18.0547H42.865C46.9734 18.0547 49.3301 16.0615 49.3301 12.5863V12.4794C49.3301 9.04173 47.0598 7.14091 42.9313 7.14091ZM39.9897 9.83614H42.6431C44.8068 9.83614 45.8555 10.7028 45.8555 12.462V12.5603C45.8555 14.3224 44.8184 15.2151 42.767 15.2151H39.9983L39.9897 9.83614ZM58.2096 8.6633L65.637 0.0576172H61.69L55.1787 7.79955V0.0807274H51.5831V18.0547H55.1787V10.099L61.713 18.0547H65.9972L58.2096 8.6633Z" fill="#0E0C0F"/>
</g>
<defs>
<clipPath id="clip0_158_885">
<rect width="66" height="18" fill="white" transform="translate(0 0.0576172)"/>
</clipPath>
</defs>
</svg>
